<svg width="300" height="21" viewBox="0 0 300 21" fill="none" xmlns="http://www.w3.org/2000/svg">
  <path d="M10.7727 6.99998H9.36364C9.2803 6.59468 9.13447 6.23862 8.92614 5.9318C8.72159 5.62498 8.47159 5.36741 8.17614 5.15908C7.88447 4.94695 7.56061 4.78786 7.20455 4.6818C6.84849 4.57574 6.47727 4.52271 6.09091 4.52271C5.38636 4.52271 4.74811 4.70074 4.17614 5.0568C3.60795 5.41286 3.1553 5.93748 2.81818 6.63067C2.48485 7.32385 2.31818 8.17423 2.31818 9.1818C2.31818 10.1894 2.48485 11.0398 2.81818 11.7329C3.1553 12.4261 3.60795 12.9507 4.17614 13.3068C4.74811 13.6629 5.38636 13.8409 6.09091 13.8409C6.47727 13.8409 6.84849 13.7879 7.20455 13.6818C7.56061 13.5757 7.88447 13.4185 8.17614 13.2102C8.47159 12.9981 8.72159 12.7386 8.92614 12.4318C9.13447 12.1212 9.2803 11.7651 9.36364 11.3636H10.7727C10.6667 11.9583 10.4735 12.4905 10.1932 12.9602C9.91288 13.4299 9.56439 13.8295 9.14773 14.1591C8.73106 14.4848 8.26326 14.7329 7.74432 14.9034C7.22917 15.0738 6.67803 15.1591 6.09091 15.1591C5.09849 15.1591 4.21591 14.9167 3.44318 14.4318C2.67045 13.947 2.0625 13.2576 1.61932 12.3636C1.17614 11.4697 0.954545 10.4091 0.954545 9.1818C0.954545 7.95453 1.17614 6.89392 1.61932 5.99998C2.0625 5.10605 2.67045 4.41665 3.44318 3.9318C4.21591 3.44695 5.09849 3.20453 6.09091 3.20453C6.67803 3.20453 7.22917 3.28976 7.74432 3.46021C8.26326 3.63067 8.73106 3.88067 9.14773 4.21021C9.56439 4.53597 9.91288 4.9337 10.1932 5.40339C10.4735 5.8693 10.6667 6.4015 10.7727 6.99998ZM13.2088 15L18.4134 4.70453V4.61362H12.4134V3.36362H19.8679V4.6818L14.6861 15H13.2088Z" fill="#959595"/>
  <path d="M21.7926 15V3.36362H26.3835C27.2661 3.36362 28.018 3.53218 28.6392 3.8693C29.2604 4.20264 29.7339 4.66665 30.0597 5.26135C30.3892 5.85226 30.554 6.53408 30.554 7.3068C30.554 8.07953 30.3873 8.76135 30.054 9.35226C29.7206 9.94317 29.2377 10.4034 28.6051 10.7329C27.9763 11.0625 27.215 11.2273 26.321 11.2273H23.3949V9.25567H25.9233C26.3968 9.25567 26.7869 9.17423 27.0938 9.01135C27.4044 8.84468 27.6354 8.61551 27.7869 8.32385C27.9422 8.02839 28.0199 7.68938 28.0199 7.3068C28.0199 6.92044 27.9422 6.58332 27.7869 6.29544C27.6354 6.00377 27.4044 5.77839 27.0938 5.6193C26.7831 5.45642 26.3892 5.37498 25.9119 5.37498H24.2528V15H21.7926ZM32.8139 15H30.1776L34.1946 3.36362H37.3651L41.3764 15H38.7401L35.8253 6.02271H35.7344L32.8139 15ZM32.6491 10.4261H38.8764V12.3466H32.6491V10.4261ZM40.9077 3.36362H43.6634L46.3168 8.37498H46.4304L49.0838 3.36362H51.8395L47.5952 10.8863V15H45.152V10.8863L40.9077 3.36362Z" fill="white"/>
  <path fill-rule="evenodd" clip-rule="evenodd" d="M62.2028 13.8617L62.1995 13.8662L62.1963 13.8707C62.0183 14.1227 61.6196 14.1968 61.3077 13.9765C61.0581 13.8002 60.9831 13.4074 61.1957 13.097C61.5128 12.6927 61.7431 12.2201 61.8944 11.7581C62.0519 11.2771 62.1251 10.7305 62.1223 10.1944C62.1194 9.65838 62.0404 9.11262 61.8778 8.63333C61.7216 8.17295 61.4862 7.7028 61.1648 7.30194C60.9489 6.99377 61.0198 6.60017 61.2675 6.42122C61.577 6.19769 61.9765 6.26749 62.1571 6.51761L62.1604 6.5221L62.1637 6.5265C62.5638 7.05405 62.8919 7.64018 63.088 8.21523C63.2944 8.89171 63.4259 9.54608 63.4293 10.1875C63.4329 10.8624 63.3684 11.5013 63.1207 12.1302C62.851 12.8151 62.5898 13.34 62.2028 13.8617ZM65.0954 15.1145L65.1032 15.1034L65.1104 15.0919C65.9971 13.6713 66.5085 11.957 66.499 10.1711C66.4895 8.3857 65.9601 6.67737 65.0587 5.26646C64.8634 4.95669 64.9511 4.59045 65.2804 4.35261C65.5015 4.19288 65.9166 4.24944 66.1629 4.57952C67.1806 6.19416 67.7953 8.146 67.8061 10.1642C67.8172 12.2512 67.2238 14.1397 66.2224 15.7661C65.9908 16.085 65.6361 16.1743 65.3303 15.9936C64.9988 15.7507 64.9382 15.337 65.0954 15.1145ZM70.2861 2.45724L70.2948 2.47449L70.3049 2.49097C71.6839 4.73919 72.4502 7.33243 72.4652 10.1394C72.4801 12.945 71.7421 15.5451 70.3884 17.8072C70.1808 18.1409 69.8304 18.235 69.4752 18.0697C69.1519 17.859 69.065 17.5098 69.2339 17.1571C70.3852 15.1125 71.1011 12.703 71.0875 10.1467C71.074 7.60176 70.4085 5.19618 69.1569 3.15136C68.9875 2.80221 69.0714 2.45448 69.3909 2.24137C69.7763 2.05725 70.1518 2.1922 70.2861 2.45724ZM74.3691 0.317663L74.3751 0.329447L74.3817 0.340883C76.0528 3.22941 77.0346 6.53184 77.0536 10.1149C77.0727 13.6943 76.1281 17.0039 74.491 19.9079C74.2831 20.2378 73.9343 20.3302 73.5808 20.1656C73.2585 19.9556 73.1712 19.608 73.3379 19.2564C74.915 16.5648 75.7643 13.4463 75.7466 10.1219C75.7288 6.78887 74.7717 3.68251 73.2427 1.0174C73.0511 0.628355 73.1861 0.247321 73.4535 0.111831C73.846 -0.0870443 74.2325 0.0479557 74.3691 0.317663Z" fill="white"/>
  </svg>
  